<svg xmlns="http://www.w3.org/2000/svg" viewBox="0 0 64 64" fill="none">
  <rect x="1" y="1" width="62" height="62" rx="8" fill="#14161b" stroke="#2a2f38" stroke-width="1.5"></rect>

  
  <g fill="#6c7280">
    <rect x="11.5" y="24" width="2.6" height="16" rx="1.3"></rect>
    <rect x="16.5" y="19" width="2.6" height="26" rx="1.3"></rect>
    <rect x="21.5" y="27" width="2.6" height="10" rx="1.3"></rect>
    <rect x="26.5" y="22" width="2.6" height="20" rx="1.3"></rect>
  </g>

  
  <line x1="33" y1="17" x2="33" y2="47" stroke="#c8253a" stroke-width="2" stroke-linecap="round"></line>
  <circle cx="33" cy="32" r="3" fill="#c8253a"></circle>
  <circle cx="33" cy="32" r="3" fill="none" stroke="#14161b" stroke-width="1"></circle>

  
  <rect x="38.5" y="22.5" width="3" height="3" rx="0.6" fill="#c8253a"></rect>
  <rect x="44" y="22.5" width="9" height="3" rx="1.5" fill="#f4f5f7"></rect>
  <rect x="38.5" y="30.5" width="14.5" height="3" rx="1.5" fill="#d8dbe1"></rect>
  <rect x="38.5" y="38.5" width="11" height="3" rx="1.5" fill="#9aa0ad"></rect>

  
  <path d="M 7 7 H 12 M 7 7 V 12" stroke="#3a414c" stroke-width="1.2"></path>
  <path d="M 57 7 H 52 M 57 7 V 12" stroke="#3a414c" stroke-width="1.2"></path>
  <path d="M 7 57 H 12 M 7 57 V 52" stroke="#3a414c" stroke-width="1.2"></path>
  <path d="M 57 57 H 52 M 57 57 V 52" stroke="#3a414c" stroke-width="1.2"></path>
</svg>